name C:\Users\u0101727\Documents\MyRepositories\predictivesimulations\OpenSimModel\subject1\EMG\EMG_gait_64.mot
datacolumns 25
datarows 20
range 2.20600000 2.22500000
endheader
time	HamL_r	TA_r	PerL_r	GL_r	HamM_r	Sol_r	VL_r	VM_r	PerB_l	TA_l	PerL_l	GL_l	GM_l	Sol_l	VL_l	VM_l	AddL_l	RF_l	TFL_l	GluMed_l	HamL_l	HamM_l	GluMed_r	RF_r	
          2.20600000	          0.00519520	          0.00555748	          0.00326134	          0.00493758	          0.00382117	          0.00501379	          0.00496284	          0.00504192	          0.00946502	          0.12051682	          0.04164964	          0.01755219	          0.01736847	          0.01130536	          0.03591610	          0.04441627	          0.01788961	          0.02683936	          0.04731130	          0.04751909	          0.01057744	          0.01156638	          0.00568175	          0.00478484	
          2.20700000	          0.00517629	          0.00554625	          0.00325624	          0.00490435	          0.00380963	          0.00499189	          0.00497709	          0.00504986	          0.00927829	          0.12048009	          0.04119378	          0.01753098	          0.01726725	          0.01119049	          0.03655535	          0.04519569	          0.01836189	          0.02741238	          0.04795431	          0.04796885	          0.01064632	          0.01179391	          0.00570042	          0.00487913	
          2.20800000	          0.00515444	          0.00553334	          0.00325076	          0.00486967	          0.00379912	          0.00497908	          0.00499044	          0.00505680	          0.00909769	          0.12047225	          0.04071659	          0.01751166	          0.01716373	          0.01108196	          0.03720174	          0.04595789	          0.01884167	          0.02799335	          0.04856919	          0.04839779	          0.01071637	          0.01203777	          0.00572061	          0.00497908	
          2.20900000	          0.00512989	          0.00551880	          0.00324473	          0.00483353	          0.00378976	          0.00497521	          0.00500286	          0.00506269	          0.00892360	          0.12048676	          0.04021910	          0.01749395	          0.01705743	          0.01097955	          0.03785255	          0.04669874	          0.01932694	          0.02858054	          0.04915479	          0.04880616	          0.01078721	          0.01229755	          0.00574228	          0.00508475	
          2.21000000	          0.00510285	          0.00550276	          0.00323805	          0.00479584	          0.00378164	          0.00498017	          0.00501428	          0.00506746	          0.00875646	          0.12051643	          0.03970237	          0.01747744	          0.01694788	          0.01088307	          0.03850470	          0.04741380	          0.01981568	          0.02917193	          0.04970934	          0.04919437	          0.01085846	          0.01257272	          0.00576535	          0.00519623	
          2.21100000	          0.00507352	          0.00548532	          0.00323063	          0.00475648	          0.00377483	          0.00499388	          0.00502464	          0.00507098	          0.00859673	          0.12055314	          0.03916738	          0.01746162	          0.01683452	          0.01079236	          0.03915469	          0.04809825	          0.02030579	          0.02976522	          0.05023063	          0.04956287	          0.01092968	          0.01286263	          0.00578972	          0.00531365	
          2.21200000	          0.00504205	          0.00546659	          0.00322241	          0.00471528	          0.00376934	          0.00501624	          0.00503385	          0.00507309	          0.00844487	          0.12058756	          0.03861518	          0.01744595	          0.01671687	          0.01070732	          0.03979850	          0.04874708	          0.02079514	          0.03035773	          0.05071596	          0.04991203	          0.01100037	          0.01316656	          0.00581526	          0.00543710	
          2.21300000	          0.00500858	          0.00544663	          0.00321335	          0.00467210	          0.00376513	          0.00504712	          0.00504184	          0.00507363	          0.00830122	          0.12060888	          0.03804690	          0.01742996	          0.01659454	          0.01062791	          0.04043189	          0.04935579	          0.02128157	          0.03094642	          0.05116218	          0.05024230	          0.01106990	          0.01348368	          0.00584185	          0.00556664	
          2.21400000	          0.00497322	          0.00542546	          0.00320351	          0.00462678	          0.00376214	          0.00508634	          0.00504855	          0.00507247	          0.00816606	          0.12060477	          0.03746371	          0.01741323	          0.01646734	          0.01055416	          0.04105072	          0.04992109	          0.02176297	          0.03152790	          0.05156588	          0.05055429	          0.01113764	          0.01381306	          0.00586929	          0.00570229	
          2.21500000	          0.00493605	          0.00540310	          0.00319301	          0.00457926	          0.00376031	          0.00513370	          0.00505395	          0.00506955	          0.00803957	          0.12056150	          0.03686668	          0.01739542	          0.01633530	          0.01048618	          0.04165142	          0.05044127	          0.02223737	          0.03209851	          0.05192364	          0.05084845	          0.01120288	          0.01415378	          0.00589738	          0.00584408	
          2.21600000	          0.00489720	          0.00537950	          0.00318195	          0.00452962	          0.00375961	          0.00518895	          0.00505802	          0.00506492	          0.00792188	          0.12046419	          0.03625660	          0.01737623	          0.01619867	          0.01042412	          0.04223127	          0.05091608	          0.02270302	          0.03265432	          0.05223233	          0.05112496	          0.01126495	          0.01450484	          0.00592583	          0.00599207	
          2.21700000	          0.00485686	          0.00535463	          0.00317042	          0.00447808	          0.00376000	          0.00525183	          0.00506069	          0.00505869	          0.00781307	          0.12029701	          0.03563381	          0.01735550	          0.01605777	          0.01036817	          0.04278851	          0.05134640	          0.02315846	          0.03319119	          0.05248970	          0.05138361	          0.01132320	          0.01486515	          0.00595431	          0.00614635	
          2.21800000	          0.00481531	          0.00532844	          0.00315851	          0.00442500	          0.00376147	          0.00532210	          0.00506192	          0.00505098	          0.00771319	          0.12004340	          0.03499836	          0.01733317	          0.01591295	          0.01031850	          0.04332236	          0.05173367	          0.02360240	          0.03370474	          0.05269435	          0.05162381	          0.01137695	          0.01523354	          0.00598243	          0.00630703	
          2.21900000	          0.00477290	          0.00530082	          0.00314625	          0.00437078	          0.00376399	          0.00539954	          0.00506161	          0.00504185	          0.00762237	          0.11968671	          0.03435027	          0.01730920	          0.01576451	          0.01027524	          0.04383268	          0.05207936	          0.02403353	          0.03419058	          0.05284537	          0.05184452	          0.01142553	          0.01560883	          0.00600975	          0.00647415	
          2.22000000	          0.00472994	          0.00527167	          0.00313373	          0.00431582	          0.00376758	          0.00548395	          0.00505971	          0.00503133	          0.00754083	          0.11921094	          0.03368985	          0.01728340	          0.01561279	          0.01023848	          0.04431959	          0.05238456	          0.02445045	          0.03464442	          0.05294197	          0.05204433	          0.01146828	          0.01598990	          0.00603583	          0.00664777	
          2.22100000	          0.00468677	          0.00524086	          0.00312098	          0.00426053	          0.00377225	          0.00557512	          0.00505620	          0.00501939	          0.00746886	          0.11860138	          0.03301759	          0.01725557	          0.01545815	          0.01020828	          0.04478307	          0.05264992	          0.02485162	          0.03506216	          0.05298361	          0.05222136	          0.01150457	          0.01637571	          0.00606016	          0.00682789	
          2.22200000	          0.00464369	          0.00520830	          0.00310807	          0.00420527	          0.00377801	          0.00567289	          0.00505105	          0.00500598	          0.00740674	          0.11784540	          0.03233401	          0.01722548	          0.01530088	          0.01018476	          0.04522283	          0.05287573	          0.02523538	          0.03544002	          0.05297013	          0.05237338	          0.01153383	          0.01676518	          0.00608229	          0.00701447	
          2.22300000	          0.00460096	          0.00517402	          0.00309506	          0.00415039	          0.00378483	          0.00577714	          0.00504428	          0.00499111	          0.00735475	          0.11693344	          0.03163955	          0.01719293	          0.01514120	          0.01016816	          0.04563824	          0.05306212	          0.02559992	          0.03577469	          0.05290174	          0.05249808	          0.01155556	          0.01715713	          0.00610181	          0.00720738	
          2.22400000	          0.00455879	          0.00513813	          0.00308200	          0.00409616	          0.00379265	          0.00588780	          0.00503587	          0.00497474	          0.00731311	          0.11585946	          0.03093472	          0.01715776	          0.01497928	          0.01015885	          0.04602832	          0.05320913	          0.02594331	          0.03606320	          0.05277884	          0.05259314	          0.01156930	          0.01755029	          0.00611845	          0.00740642	
          2.22500000	          0.00451737	          0.00510086	          0.00306898	          0.00404283	          0.00380136	          0.00600474	          0.00502582	          0.00495682	          0.00728199	          0.11462116	          0.03022025	          0.01711988	          0.01481526	          0.01015733	          0.04639195	          0.05331699	          0.02626369	          0.03630308	          0.05260193	          0.05265607	          0.01157460	          0.01794341	          0.00613205	          0.00761128	
